<svg xmlns="http://www.w3.org/2000/svg" xmlns:xlink="http://www.w3.org/1999/xlink" contentStyleType="text/css" height="559px" preserveAspectRatio="none" style="width:642px;height:559px;background:#FFFFFF;" version="1.1" viewBox="0 0 642 559" width="642px" zoomAndPan="magnify"><defs/><g><!--cluster 96e32d4408076f392dbc6a2a326fe764--><g id="cluster_96e32d4408076f392dbc6a2a326fe764"><path d="M412.5,6 L464.5,6 A3.75,3.75 0 0 1 467,8.5 L474,28.2969 L632.5,28.2969 A2.5,2.5 0 0 1 635,30.7969 L635,133.39 A2.5,2.5 0 0 1 632.5,135.89 L412.5,135.89 A2.5,2.5 0 0 1 410,133.39 L410,8.5 A2.5,2.5 0 0 1 412.5,6 " fill="none" style="stroke:#000000;stroke-width:1.5;"/><line style="stroke:#000000;stroke-width:1.5;" x1="410" x2="474" y1="28.2969" y2="28.2969"/><text fill="#000000" font-family="sans-serif" font-size="14" font-weight="bold" lengthAdjust="spacing" textLength="51" x="414" y="20.9951">exp_d/</text></g><!--cluster 85e4fb363ba093c214be67a756602750--><g id="cluster_85e4fb363ba093c214be67a756602750"><path d="M8.5,6 L183.5,6 A3.75,3.75 0 0 1 186,8.5 L193,28.2969 L383.5,28.2969 A2.5,2.5 0 0 1 386,30.7969 L386,550.06 A2.5,2.5 0 0 1 383.5,552.56 L8.5,552.56 A2.5,2.5 0 0 1 6,550.06 L6,8.5 A2.5,2.5 0 0 1 8.5,6 " fill="none" style="stroke:#000000;stroke-width:1.5;"/><line style="stroke:#000000;stroke-width:1.5;" x1="6" x2="193" y1="28.2969" y2="28.2969"/><text fill="#000000" font-family="sans-serif" font-size="14" font-weight="bold" lengthAdjust="spacing" textLength="174" x="10" y="20.9951">expenses_monitoring/</text></g><!--entity 4d3ba7fabf151ae4285698369b8785c2--><g id="elem_4d3ba7fabf151ae4285698369b8785c2"><rect fill="#F1F1F1" height="78.8906" rx="2.5" ry="2.5" style="stroke:#181818;stroke-width:0.5;" width="70" x="426" y="41"/><rect fill="#F1F1F1" height="10" style="stroke:#181818;stroke-width:0.5;" width="15" x="476" y="46"/><rect fill="#F1F1F1" height="2" style="stroke:#181818;stroke-width:0.5;" width="4" x="474" y="48"/><rect fill="#F1F1F1" height="2" style="stroke:#181818;stroke-width:0.5;" width="4" x="474" y="52"/><text fill="#000000" font-family="sans-serif" font-size="14" font-weight="bold" lengthAdjust="spacing" textLength="30" x="441" y="73.9951">urls</text><text fill="#000000" font-family="sans-serif" font-size="14" lengthAdjust="spacing" textLength="4" x="441" y="90.292">&#160;</text><text fill="#000000" font-family="sans-serif" font-size="14" lengthAdjust="spacing" textLength="4" x="441" y="106.5889">&#160;</text></g><!--entity 5d7996f4849ad1a23f5c68824ae647f3--><g id="elem_5d7996f4849ad1a23f5c68824ae647f3"><rect fill="#F1F1F1" height="78.8906" rx="2.5" ry="2.5" style="stroke:#181818;stroke-width:0.5;" width="89" x="530.5" y="41"/><rect fill="#F1F1F1" height="10" style="stroke:#181818;stroke-width:0.5;" width="15" x="599.5" y="46"/><rect fill="#F1F1F1" height="2" style="stroke:#181818;stroke-width:0.5;" width="4" x="597.5" y="48"/><rect fill="#F1F1F1" height="2" style="stroke:#181818;stroke-width:0.5;" width="4" x="597.5" y="52"/><text fill="#000000" font-family="sans-serif" font-size="14" font-weight="bold" lengthAdjust="spacing" textLength="49" x="545.5" y="73.9951">celery</text><text fill="#000000" font-family="sans-serif" font-size="14" lengthAdjust="spacing" textLength="4" x="545.5" y="90.292">&#160;</text><text fill="#000000" font-family="sans-serif" font-size="14" lengthAdjust="spacing" textLength="4" x="545.5" y="106.5889">&#160;</text></g><!--entity d9a7100e9d7ea35291c0905655465d22--><g id="elem_d9a7100e9d7ea35291c0905655465d22"><rect fill="#F1F1F1" height="78.8906" rx="2.5" ry="2.5" style="stroke:#181818;stroke-width:0.5;" width="86" x="33" y="318.78"/><rect fill="#F1F1F1" height="10" style="stroke:#181818;stroke-width:0.5;" width="15" x="99" y="323.78"/><rect fill="#F1F1F1" height="2" style="stroke:#181818;stroke-width:0.5;" width="4" x="97" y="325.78"/><rect fill="#F1F1F1" height="2" style="stroke:#181818;stroke-width:0.5;" width="4" x="97" y="329.78"/><text fill="#000000" font-family="sans-serif" font-size="14" font-weight="bold" lengthAdjust="spacing" textLength="46" x="48" y="351.7751">forms</text><text fill="#000000" font-family="sans-serif" font-size="14" lengthAdjust="spacing" textLength="4" x="48" y="368.072">&#160;</text><text fill="#000000" font-family="sans-serif" font-size="14" lengthAdjust="spacing" textLength="4" x="48" y="384.3689">&#160;</text></g><!--entity 20d24ed0123cfc2bd1b5d47f820e3418--><g id="elem_20d24ed0123cfc2bd1b5d47f820e3418"><rect fill="#F1F1F1" height="78.8906" rx="2.5" ry="2.5" style="stroke:#181818;stroke-width:0.5;" width="70" x="300" y="41"/><rect fill="#F1F1F1" height="10" style="stroke:#181818;stroke-width:0.5;" width="15" x="350" y="46"/><rect fill="#F1F1F1" height="2" style="stroke:#181818;stroke-width:0.5;" width="4" x="348" y="48"/><rect fill="#F1F1F1" height="2" style="stroke:#181818;stroke-width:0.5;" width="4" x="348" y="52"/><text fill="#000000" font-family="sans-serif" font-size="14" font-weight="bold" lengthAdjust="spacing" textLength="30" x="315" y="73.9951">urls</text><text fill="#000000" font-family="sans-serif" font-size="14" lengthAdjust="spacing" textLength="4" x="315" y="90.292">&#160;</text><text fill="#000000" font-family="sans-serif" font-size="14" lengthAdjust="spacing" textLength="4" x="315" y="106.5889">&#160;</text></g><!--entity 068ca1e943b710c61cfbc8c9f694a75c--><g id="elem_068ca1e943b710c61cfbc8c9f694a75c"><rect fill="#F1F1F1" height="78.8906" rx="2.5" ry="2.5" style="stroke:#181818;stroke-width:0.5;" width="128" x="22" y="41"/><rect fill="#F1F1F1" height="10" style="stroke:#181818;stroke-width:0.5;" width="15" x="130" y="46"/><rect fill="#F1F1F1" height="2" style="stroke:#181818;stroke-width:0.5;" width="4" x="128" y="48"/><rect fill="#F1F1F1" height="2" style="stroke:#181818;stroke-width:0.5;" width="4" x="128" y="52"/><text fill="#000000" font-family="sans-serif" font-size="14" font-weight="bold" lengthAdjust="spacing" textLength="88" x="37" y="73.9951">bank_client</text><text fill="#000000" font-family="sans-serif" font-size="14" lengthAdjust="spacing" textLength="4" x="37" y="90.292">&#160;</text><text fill="#000000" font-family="sans-serif" font-size="14" lengthAdjust="spacing" textLength="4" x="37" y="106.5889">&#160;</text></g><!--entity ae8945e993020f31267d044e441d2523--><g id="elem_ae8945e993020f31267d044e441d2523"><rect fill="#F1F1F1" height="78.8906" rx="2.5" ry="2.5" style="stroke:#181818;stroke-width:0.5;" width="86" x="205" y="179.89"/><rect fill="#F1F1F1" height="10" style="stroke:#181818;stroke-width:0.5;" width="15" x="271" y="184.89"/><rect fill="#F1F1F1" height="2" style="stroke:#181818;stroke-width:0.5;" width="4" x="269" y="186.89"/><rect fill="#F1F1F1" height="2" style="stroke:#181818;stroke-width:0.5;" width="4" x="269" y="190.89"/><text fill="#000000" font-family="sans-serif" font-size="14" font-weight="bold" lengthAdjust="spacing" textLength="46" x="220" y="212.8851">views</text><text fill="#000000" font-family="sans-serif" font-size="14" lengthAdjust="spacing" textLength="4" x="220" y="229.182">&#160;</text><text fill="#000000" font-family="sans-serif" font-size="14" lengthAdjust="spacing" textLength="4" x="220" y="245.4789">&#160;</text></g><!--entity 906e237d982703eb46ff1631098f68d2--><g id="elem_906e237d982703eb46ff1631098f68d2"><rect fill="#F1F1F1" height="78.8906" rx="2.5" ry="2.5" style="stroke:#181818;stroke-width:0.5;" width="58" x="154" y="318.78"/><rect fill="#F1F1F1" height="10" style="stroke:#181818;stroke-width:0.5;" width="15" x="192" y="323.78"/><rect fill="#F1F1F1" height="2" style="stroke:#181818;stroke-width:0.5;" width="4" x="190" y="325.78"/><rect fill="#F1F1F1" height="2" style="stroke:#181818;stroke-width:0.5;" width="4" x="190" y="329.78"/><text fill="#000000" font-family="sans-serif" font-size="14" font-weight="bold" lengthAdjust="spacing" textLength="18" x="169" y="351.7751">lib</text><text fill="#000000" font-family="sans-serif" font-size="14" lengthAdjust="spacing" textLength="4" x="169" y="368.072">&#160;</text><text fill="#000000" font-family="sans-serif" font-size="14" lengthAdjust="spacing" textLength="4" x="169" y="384.3689">&#160;</text></g><!--entity 49fd5f39ec394316f6ee9994be57be2c--><g id="elem_49fd5f39ec394316f6ee9994be57be2c"><rect fill="#F1F1F1" height="78.8906" rx="2.5" ry="2.5" style="stroke:#181818;stroke-width:0.5;" width="80" x="185" y="41"/><rect fill="#F1F1F1" height="10" style="stroke:#181818;stroke-width:0.5;" width="15" x="245" y="46"/><rect fill="#F1F1F1" height="2" style="stroke:#181818;stroke-width:0.5;" width="4" x="243" y="48"/><rect fill="#F1F1F1" height="2" style="stroke:#181818;stroke-width:0.5;" width="4" x="243" y="52"/><text fill="#000000" font-family="sans-serif" font-size="14" font-weight="bold" lengthAdjust="spacing" textLength="40" x="200" y="73.9951">tests</text><text fill="#000000" font-family="sans-serif" font-size="14" lengthAdjust="spacing" textLength="4" x="200" y="90.292">&#160;</text><text fill="#000000" font-family="sans-serif" font-size="14" lengthAdjust="spacing" textLength="4" x="200" y="106.5889">&#160;</text></g><!--entity c98b83030a3f0cb7818cdcc31b5430cf--><g id="elem_c98b83030a3f0cb7818cdcc31b5430cf"><rect fill="#F1F1F1" height="78.8906" rx="2.5" ry="2.5" style="stroke:#181818;stroke-width:0.5;" width="78" x="47" y="179.89"/><rect fill="#F1F1F1" height="10" style="stroke:#181818;stroke-width:0.5;" width="15" x="105" y="184.89"/><rect fill="#F1F1F1" height="2" style="stroke:#181818;stroke-width:0.5;" width="4" x="103" y="186.89"/><rect fill="#F1F1F1" height="2" style="stroke:#181818;stroke-width:0.5;" width="4" x="103" y="190.89"/><text fill="#000000" font-family="sans-serif" font-size="14" font-weight="bold" lengthAdjust="spacing" textLength="38" x="62" y="212.8851">apps</text><text fill="#000000" font-family="sans-serif" font-size="14" lengthAdjust="spacing" textLength="4" x="62" y="229.182">&#160;</text><text fill="#000000" font-family="sans-serif" font-size="14" lengthAdjust="spacing" textLength="4" x="62" y="245.4789">&#160;</text></g><!--entity 73eff7e724ec511338d354d0aad99a55--><g id="elem_73eff7e724ec511338d354d0aad99a55"><rect fill="#F1F1F1" height="78.8906" rx="2.5" ry="2.5" style="stroke:#181818;stroke-width:0.5;" width="97" x="166.5" y="457.67"/><rect fill="#F1F1F1" height="10" style="stroke:#181818;stroke-width:0.5;" width="15" x="243.5" y="462.67"/><rect fill="#F1F1F1" height="2" style="stroke:#181818;stroke-width:0.5;" width="4" x="241.5" y="464.67"/><rect fill="#F1F1F1" height="2" style="stroke:#181818;stroke-width:0.5;" width="4" x="241.5" y="468.67"/><text fill="#000000" font-family="sans-serif" font-size="14" font-weight="bold" lengthAdjust="spacing" textLength="57" x="181.5" y="490.6651">models</text><text fill="#000000" font-family="sans-serif" font-size="14" lengthAdjust="spacing" textLength="4" x="181.5" y="506.962">&#160;</text><text fill="#000000" font-family="sans-serif" font-size="14" lengthAdjust="spacing" textLength="4" x="181.5" y="523.2589">&#160;</text></g><!--entity fe1597578094cfa536043a341860f9d2--><g id="elem_fe1597578094cfa536043a341860f9d2"><rect fill="#F1F1F1" height="78.8906" rx="2.5" ry="2.5" style="stroke:#181818;stroke-width:0.5;" width="87" x="283.5" y="318.78"/><rect fill="#F1F1F1" height="10" style="stroke:#181818;stroke-width:0.5;" width="15" x="350.5" y="323.78"/><rect fill="#F1F1F1" height="2" style="stroke:#181818;stroke-width:0.5;" width="4" x="348.5" y="325.78"/><rect fill="#F1F1F1" height="2" style="stroke:#181818;stroke-width:0.5;" width="4" x="348.5" y="329.78"/><text fill="#000000" font-family="sans-serif" font-size="14" font-weight="bold" lengthAdjust="spacing" textLength="47" x="298.5" y="351.7751">admin</text><text fill="#000000" font-family="sans-serif" font-size="14" lengthAdjust="spacing" textLength="4" x="298.5" y="368.072">&#160;</text><text fill="#000000" font-family="sans-serif" font-size="14" lengthAdjust="spacing" textLength="4" x="298.5" y="384.3689">&#160;</text></g><!--link 4d3ba7fabf151ae4285698369b8785c2 to ae8945e993020f31267d044e441d2523--><g id="link_4d3ba7fabf151ae4285698369b8785c2_ae8945e993020f31267d044e441d2523"><path codeLine="61" d="M425.52,113.45 C413.39,123.72 399.47,134.78 386,143.89 C355.67,164.4 324.4893,181.2221 296.6193,195.1221 " fill="none" id="4d3ba7fabf151ae4285698369b8785c2-to-ae8945e993020f31267d044e441d2523" style="stroke:#181818;stroke-width:1.0;"/><polygon fill="#181818" points="291.25,197.8,301.0891,197.3627,295.7244,195.5684,297.5186,190.2037,291.25,197.8" style="stroke:#181818;stroke-width:1.0;"/></g><!--link d9a7100e9d7ea35291c0905655465d22 to 73eff7e724ec511338d354d0aad99a55--><g id="link_d9a7100e9d7ea35291c0905655465d22_73eff7e724ec511338d354d0aad99a55"><path codeLine="62" d="M115.46,398.09 C134.4,416.74 152.7558,434.8092 171.6458,453.4192 " fill="none" id="d9a7100e9d7ea35291c0905655465d22-to-73eff7e724ec511338d354d0aad99a55" style="stroke:#181818;stroke-width:1.0;"/><polygon fill="#181818" points="175.92,457.63,172.3159,448.4643,172.3582,454.121,166.7015,454.1632,175.92,457.63" style="stroke:#181818;stroke-width:1.0;"/></g><!--link 20d24ed0123cfc2bd1b5d47f820e3418 to ae8945e993020f31267d044e441d2523--><g id="link_20d24ed0123cfc2bd1b5d47f820e3418_ae8945e993020f31267d044e441d2523"><path codeLine="63" d="M310.3,120.3 C298.45,138.96 287.4968,156.1752 275.6768,174.7852 " fill="none" id="20d24ed0123cfc2bd1b5d47f820e3418-to-ae8945e993020f31267d044e441d2523" style="stroke:#181818;stroke-width:1.0;"/><polygon fill="#181818" points="272.46,179.85,280.6618,174.3974,275.1407,175.6294,273.9088,170.1083,272.46,179.85" style="stroke:#181818;stroke-width:1.0;"/></g><!--link ae8945e993020f31267d044e441d2523 to d9a7100e9d7ea35291c0905655465d22--><g id="link_ae8945e993020f31267d044e441d2523_d9a7100e9d7ea35291c0905655465d22"><path codeLine="64" d="M204.6,254.88 C178.52,275.63 150.1545,298.2035 124.0845,318.9535 " fill="none" id="ae8945e993020f31267d044e441d2523-to-d9a7100e9d7ea35291c0905655465d22" style="stroke:#181818;stroke-width:1.0;"/><polygon fill="#181818" points="119.39,322.69,128.9228,320.2149,123.3021,319.5762,123.9408,313.9555,119.39,322.69" style="stroke:#181818;stroke-width:1.0;"/></g><!--link ae8945e993020f31267d044e441d2523 to 906e237d982703eb46ff1631098f68d2--><g id="link_ae8945e993020f31267d044e441d2523_906e237d982703eb46ff1631098f68d2"><path codeLine="65" d="M229.55,259.19 C220.69,277.85 212.6844,294.7104 203.8444,313.3204 " fill="none" id="ae8945e993020f31267d044e441d2523-to-906e237d982703eb46ff1631098f68d2" style="stroke:#181818;stroke-width:1.0;"/><polygon fill="#181818" points="201.27,318.74,208.7447,312.3268,203.4153,314.2236,201.5185,308.8943,201.27,318.74" style="stroke:#181818;stroke-width:1.0;"/></g><!--link ae8945e993020f31267d044e441d2523 to 73eff7e724ec511338d354d0aad99a55--><g id="link_ae8945e993020f31267d044e441d2523_73eff7e724ec511338d354d0aad99a55"><path codeLine="66" d="M244.62,259.14 C241.36,295.11 236.04,350.08 230,397.67 C227.5,417.39 225.1559,433.3334 222.2959,451.4434 " fill="none" id="ae8945e993020f31267d044e441d2523-to-73eff7e724ec511338d354d0aad99a55" style="stroke:#181818;stroke-width:1.0;"/><polygon fill="#181818" points="221.36,457.37,226.7149,449.1041,222.14,452.4312,218.8129,447.8562,221.36,457.37" style="stroke:#181818;stroke-width:1.0;"/></g><!--link 906e237d982703eb46ff1631098f68d2 to 73eff7e724ec511338d354d0aad99a55--><g id="link_906e237d982703eb46ff1631098f68d2_73eff7e724ec511338d354d0aad99a55"><path codeLine="67" d="M192.08,398.09 C196.45,416.74 200.2843,433.1775 204.6343,451.7875 " fill="none" id="906e237d982703eb46ff1631098f68d2-to-73eff7e724ec511338d354d0aad99a55" style="stroke:#181818;stroke-width:1.0;"/><polygon fill="#181818" points="206,457.63,207.8465,447.9558,204.8619,452.7612,200.0565,449.7767,206,457.63" style="stroke:#181818;stroke-width:1.0;"/></g><!--link fe1597578094cfa536043a341860f9d2 to 73eff7e724ec511338d354d0aad99a55--><g id="link_fe1597578094cfa536043a341860f9d2_73eff7e724ec511338d354d0aad99a55"><path codeLine="68" d="M295.2,398.09 C279.94,416.74 265.5085,434.3755 250.2885,452.9855 " fill="none" id="fe1597578094cfa536043a341860f9d2-to-73eff7e724ec511338d354d0aad99a55" style="stroke:#181818;stroke-width:1.0;"/><polygon fill="#181818" points="246.49,457.63,255.2841,453.1955,249.6554,453.7596,249.0914,448.1309,246.49,457.63" style="stroke:#181818;stroke-width:1.0;"/></g><!--SRC=[ZP9HRXin34J_znH6Fmq4fKIA4dzwaQ88A8eA5h5t3TjjKXIzUxTsK3HmY_K1PlXcEBhRpI_xyNMSdeQ3shC- -UQ3lnuUsySF6prjX1rZ8u82cJjARDLOesBaxfbfysEmUN-O9v_E6sfODNUjFQIWJh4abe8ijUIIB6u-3zljr-FkjDqEm_3bBsLgMOGx5H9jGIFsP5nA97MctF6YDD_vyVkRzkSxN9zEVdhSpzDudezBbYjyIKwz8YzK86WnK7NEcXCpn9pW7NmJpG70fMLNJ562WK3Yb8XJYrVuFX_tj_GHMYHl429QjrXRgAajs2M28uNo_zp0nJIu4DRbk76mNgsOT1PQEEsYh3ezFzfkN0Gt1kf5ABa8GeIE8N9kGEH4eSKKhyLz6_tbzhO0UyJSfCGCw9Muzy0OG4hdqgw1TsEz4PBqbfOjkE427hYpBm2ob9jozNY5FllfV7lJfDI2WA3OmMekeLWpmwKmGh1-aUhXSAlCwBrdpqlHba90B0qJDL1j8fhIHRcVc_-ZvUuXIKwvW91rJSX0gBy_mz3bBQcs_JZz6TVgb1_QmwVLzeVLKLrirh8DgmExZsPrB1URDUOxRTRcTQVDQZUhCxxFPdKZTzdy0W00]--></g></svg>