<svg xmlns="http://www.w3.org/2000/svg" xmlns:xlink="http://www.w3.org/1999/xlink" contentStyleType="text/css" height="603px" preserveAspectRatio="none" style="width:246px;height:603px;background:#FFFFFF;" version="1.1" viewBox="0 0 246 603" width="246px" zoomAndPan="magnify"><defs/><g><!--cluster 2567a5ec9705eb7ac2c984033e06189d--><g id="cluster_2567a5ec9705eb7ac2c984033e06189d"><polygon fill="none" points="16,16,26,6,178,6,178,485.18,168,495.18,16,495.18,16,16" style="stroke:#181818;stroke-width:1.0;"/><line style="stroke:#181818;stroke-width:1.0;" x1="168" x2="178" y1="16" y2="6"/><line style="stroke:#181818;stroke-width:1.0;" x1="16" x2="168" y1="16" y2="16"/><line style="stroke:#181818;stroke-width:1.0;" x1="168" x2="168" y1="16" y2="495.18"/><text fill="#000000" font-family="sans-serif" font-size="14" font-weight="bold" lengthAdjust="spacing" textLength="35" x="75.5" y="31.9951">Web</text></g><!--entity 1984e3b8326f3ce21f68bfa586776fd0--><g id="elem_1984e3b8326f3ce21f68bfa586776fd0"><rect fill="#F1F1F1" height="78.8906" rx="2.5" ry="2.5" style="stroke:#181818;stroke-width:0.5;" width="129" x="32.5" y="46"/><rect fill="#F1F1F1" height="10" style="stroke:#181818;stroke-width:0.5;" width="15" x="141.5" y="51"/><rect fill="#F1F1F1" height="2" style="stroke:#181818;stroke-width:0.5;" width="4" x="139.5" y="53"/><rect fill="#F1F1F1" height="2" style="stroke:#181818;stroke-width:0.5;" width="4" x="139.5" y="57"/><text fill="#000000" font-family="sans-serif" font-size="14" font-weight="bold" lengthAdjust="spacing" textLength="89" x="47.5" y="78.9951">django_app</text><text fill="#000000" font-family="sans-serif" font-size="14" lengthAdjust="spacing" textLength="4" x="47.5" y="95.292">&#160;</text><text fill="#000000" font-family="sans-serif" font-size="14" lengthAdjust="spacing" textLength="4" x="47.5" y="111.5889">&#160;</text></g><!--entity fd433df176955d196b161b0a41a19970--><g id="elem_fd433df176955d196b161b0a41a19970"><ellipse cx="135" cy="214.89" fill="#F1F1F1" rx="8" ry="8" style="stroke:#181818;stroke-width:0.5;"/><text fill="#000000" font-family="sans-serif" font-size="14" lengthAdjust="spacing" textLength="36" x="117" y="244.8851">8000</text></g><!--entity f7eed7b9f02b1388e4e523a1fac531b9--><g id="elem_f7eed7b9f02b1388e4e523a1fac531b9"><rect fill="#F1F1F1" height="39.2969" rx="2.5" ry="2.5" style="stroke:#181818;stroke-width:0.5;" width="96" x="32" y="439.89"/><polygon fill="#F1F1F1" points="111,444.89,111,458.89,123,458.89,123,450.89,117,444.89,111,444.89" style="stroke:#181818;stroke-width:0.5;"/><line style="stroke:#181818;stroke-width:0.5;" x1="117" x2="117" y1="444.89" y2="450.89"/><line style="stroke:#181818;stroke-width:0.5;" x1="123" x2="117" y1="450.89" y2="450.89"/><text fill="#000000" font-family="sans-serif" font-size="14" lengthAdjust="spacing" textLength="66" x="42" y="465.8851">/app/data</text></g><!--entity 1624c420083928ef3e240dd88f2e52f0--><g id="elem_1624c420083928ef3e240dd88f2e52f0"><ellipse cx="221" cy="349.89" fill="#F1F1F1" rx="8" ry="8" style="stroke:#181818;stroke-width:0.5;"/><text fill="#000000" font-family="sans-serif" font-size="14" lengthAdjust="spacing" textLength="36" x="203" y="379.8851">8000</text></g><!--entity b86486e19bf8ab7f6de7806dc2438fad--><g id="elem_b86486e19bf8ab7f6de7806dc2438fad"><rect fill="#F1F1F1" height="39.2969" rx="2.5" ry="2.5" style="stroke:#181818;stroke-width:0.5;" width="69" x="45.5" y="558.18"/><polygon fill="#F1F1F1" points="97.5,563.18,97.5,577.18,109.5,577.18,109.5,569.18,103.5,563.18,97.5,563.18" style="stroke:#181818;stroke-width:0.5;"/><line style="stroke:#181818;stroke-width:0.5;" x1="103.5" x2="103.5" y1="563.18" y2="569.18"/><line style="stroke:#181818;stroke-width:0.5;" x1="109.5" x2="103.5" y1="569.18" y2="569.18"/><text fill="#000000" font-family="sans-serif" font-size="14" lengthAdjust="spacing" textLength="39" x="55.5" y="584.1751">./data</text></g><!--link 1984e3b8326f3ce21f68bfa586776fd0 to fd433df176955d196b161b0a41a19970--><g id="link_1984e3b8326f3ce21f68bfa586776fd0_fd433df176955d196b161b0a41a19970"><path codeLine="13" d="M108.61,125.37 C117.16,154.07 128.09,190.71 132.74,206.31 " fill="none" id="1984e3b8326f3ce21f68bfa586776fd0-fd433df176955d196b161b0a41a19970" style="stroke:#181818;stroke-width:1.0;"/></g><!--link fd433df176955d196b161b0a41a19970 to 1624c420083928ef3e240dd88f2e52f0--><g id="link_fd433df176955d196b161b0a41a19970_1624c420083928ef3e240dd88f2e52f0"><path codeLine="14" d="M140.12,223.81 C155.45,247.52 200.86,317.74 216.01,341.17 " fill="none" id="fd433df176955d196b161b0a41a19970-1624c420083928ef3e240dd88f2e52f0" style="stroke:#181818;stroke-width:1.0;"/></g><!--link f7eed7b9f02b1388e4e523a1fac531b9 to b86486e19bf8ab7f6de7806dc2438fad--><g id="link_f7eed7b9f02b1388e4e523a1fac531b9_b86486e19bf8ab7f6de7806dc2438fad"><path codeLine="15" d="M80,479.48 C80,501.1 80,536.27 80,557.9 " fill="none" id="f7eed7b9f02b1388e4e523a1fac531b9-b86486e19bf8ab7f6de7806dc2438fad" style="stroke:#181818;stroke-width:1.0;"/><text fill="#000000" font-family="sans-serif" font-size="13" lengthAdjust="spacing" textLength="14" x="81" y="524.2469">rw</text></g><!--link 1984e3b8326f3ce21f68bfa586776fd0 to f7eed7b9f02b1388e4e523a1fac531b9--><g id="link_1984e3b8326f3ce21f68bfa586776fd0_f7eed7b9f02b1388e4e523a1fac531b9"><path codeLine="16" d="M94.48,125.16 C93.34,143.55 92.01,165.85 91,185.89 C86.2,281.22 82.3444,389.4035 80.8344,433.6935 " fill="none" id="1984e3b8326f3ce21f68bfa586776fd0-to-f7eed7b9f02b1388e4e523a1fac531b9" style="stroke:#181818;stroke-width:1.0;stroke-dasharray:7.0,7.0;"/><polygon fill="#181818" points="80.63,439.69,84.9343,430.8315,80.8004,434.6929,76.939,430.5589,80.63,439.69" style="stroke:#181818;stroke-width:1.0;"/><text fill="#000000" font-family="sans-serif" font-size="13" lengthAdjust="spacing" textLength="23" x="87" y="286.9569">use</text></g><!--SRC=[XP7DJWCn38JlUOee9rY9RVxZSE0rE224dDYfYjhTgbrK9CIxivG3SChPunb_OzplvyjXzxwRjcAQYQLwvA8adgKDCM7WcfCEN19MMpDuxHphQ22J_12opeVZFF6qIBFEs1LmDZPNsPeMeJGC45EAZRHy4iD0hpXjvnSy7eT12F4iRcwb0gtrDR2HTuwQIJ67G2R7Og8f6hr1azSh19wMNSEwIBLPBJQ42_ui9cPA9JTjYt40x3bOXsRL1cTA5f__WqoqldghDRXiWPjZwpKHGBFhOliRDFwc58WU8fjS6c19BH8dq96gzGuQakXMS4TtVSYUuEhI9UXLSdNf4SbxgKuNrGSRHnh7X-uVlltUpgo-0000]--></g></svg>